<svg width="23" height="25" viewBox="0 0 23 25" fill="none" xmlns="http://www.w3.org/2000/svg">
<g clip-path="url(#clip0)">
<path d="M13.7489 0.289149C8.83167 -0.699278 5.17958 0.771309 2.43455 4.9661C1.5991 6.24382 1.0501 7.6903 0.64431 9.16089C-0.191135 12.2467 -0.310485 15.5977 0.787529 18.6112C1.88554 21.6247 4.41575 24.1561 7.49496 24.8311C11.0038 25.5784 14.632 23.8668 17.1861 21.3595C20.6472 17.9844 22.5807 13.0905 22.3897 8.22068C22.342 7.0876 22.1749 5.93042 21.6975 4.91788C20.3131 2.04903 16.8281 1.01239 13.7489 0.289149Z" fill="#E5F300"/>
<path d="M9.3753 8.20351C9.3753 8.20351 8.50836 8.63406 8.25857 8.76767C8.24388 9.0646 8.21449 9.36152 8.19979 9.65845C8.1851 9.99991 8.17041 10.1929 8.15571 10.5344C8.15571 10.6086 8.15571 10.6828 8.14102 10.7422C8.09694 10.9946 7.96469 11.1431 7.77367 11.1431C7.55327 11.1431 7.40633 10.9798 7.40633 10.7125C7.40633 10.2671 7.43571 9.95537 7.45041 9.50998C7.45041 9.39121 7.45041 9.21306 7.45041 9.07944C7.45041 9.07944 7.31816 9.13883 7.23 9.15367C7.08306 9.13883 6.96551 9.0646 6.92143 8.91613C6.87735 8.76767 6.92143 8.63406 7.03898 8.53013C7.06837 8.51529 7.56796 8.20351 7.56796 8.20351C7.58265 7.57997 7.61204 6.70404 7.65612 6.09535C7.67082 5.97658 7.68551 5.85781 7.72959 5.75388C7.77367 5.62027 7.89122 5.54603 8.03816 5.56088C8.1851 5.56088 8.28796 5.64996 8.31735 5.78357C8.34673 5.90234 8.36143 6.03596 8.36143 6.16958C8.34673 6.6595 8.33204 6.98612 8.31735 7.47605C8.31735 7.59482 8.31735 7.71359 8.31735 7.89174C8.87571 7.62451 8.93449 7.55028 9.46346 7.29789C9.49285 6.8525 9.50755 6.57043 9.53693 6.12504C9.55163 5.97658 9.56632 5.81327 9.59571 5.6648C9.63979 5.50149 9.75734 5.39757 9.93367 5.41242C10.11 5.42726 10.2128 5.53119 10.2422 5.6945C10.2569 5.82811 10.2569 5.94688 10.2569 6.0805C10.2569 6.37742 10.2275 6.60012 10.2275 6.94158C10.3304 6.91189 10.4626 6.77827 10.5655 6.76343C10.7712 6.70404 10.9622 6.79312 11.0357 6.97127C11.1092 7.13458 11.0504 7.31274 10.8741 7.43151C10.7418 7.49089 10.1541 7.86205 10.1541 7.86205C10.1394 8.82706 10.11 9.50998 10.0806 10.4898C10.0806 10.5789 10.0806 10.6828 10.0659 10.7719C10.0218 10.9946 9.87489 11.1282 9.68387 11.1134C9.49285 11.0985 9.36061 10.9649 9.33122 10.7422C9.31653 10.6531 9.34591 9.37637 9.3753 8.53013C9.3753 8.41136 9.3753 8.35198 9.3753 8.20351Z" fill="black"/>
<path d="M13.4897 9.50998C13.3868 9.62875 13.3133 9.71783 13.2399 9.79206C12.9754 10.0444 12.7256 10.3265 12.4464 10.5492C12.2848 10.6828 12.079 10.7571 11.8733 10.8165C11.4178 10.9352 11.0211 10.668 10.9623 10.1632C10.9329 9.89598 10.9476 9.59906 11.0211 9.33183C11.3003 8.29259 11.8586 7.41666 12.6668 6.73373C12.8578 6.57043 13.0782 6.45166 13.2986 6.36258C13.9158 6.11019 14.4007 6.62981 14.4007 7.17912C14.3713 7.49089 14.2831 9.40606 14.2684 10.0296C14.2684 10.1335 14.2684 10.2523 14.239 10.3562C14.195 10.5492 14.0333 10.6828 13.857 10.668C13.6954 10.6531 13.5484 10.5344 13.519 10.3414C13.4897 10.1632 13.5043 9.98506 13.5043 9.79206C13.5043 9.73268 13.5043 9.6436 13.4897 9.50998ZM11.8146 9.99991C12.6815 9.65844 13.6219 8.12928 13.5337 7.20881C13.5337 7.14943 13.475 7.11974 13.4309 7.14943C12.6815 7.49089 11.7264 9.0349 11.7264 9.92568C11.7264 9.97022 11.7705 10.0148 11.8146 9.99991Z" fill="black"/>
<path d="M4.37943 8.0698C4.688 8.12918 4.90841 8.17372 5.14351 8.20341C5.408 8.24795 5.67249 8.2628 5.95167 8.29249C6.17208 8.32218 6.3631 8.41126 6.43657 8.6488C6.51004 8.90119 6.39249 9.07934 6.21616 9.22781C6.128 9.30204 6.02514 9.37627 5.93698 9.4505C5.27575 9.92558 4.61453 10.4007 3.95331 10.8757C3.90922 10.9054 3.86514 10.95 3.80637 10.9797C3.64473 11.0687 3.46841 11.039 3.35086 10.9054C3.23331 10.7718 3.21861 10.5937 3.32147 10.4304C3.39494 10.3116 3.4978 10.2225 3.60065 10.1483C4.08555 9.79196 4.57045 9.4505 5.11412 9.04965C4.95249 9.00511 4.84963 8.99027 4.74677 8.96057C4.46759 8.90119 4.18841 8.85665 3.92392 8.76757C3.43902 8.58942 3.32147 8.15887 3.65943 7.74318C3.87984 7.47595 4.14433 7.23841 4.40881 7.01571C4.77616 6.73363 5.1729 6.48125 5.56963 6.22886C5.8782 6.02101 6.09861 6.03586 6.23085 6.24371C6.3631 6.45156 6.27494 6.6594 5.98106 6.8821C5.61371 7.14933 5.23167 7.40172 4.86432 7.66895C4.71739 7.77287 4.58514 7.89164 4.37943 8.0698Z" fill="black"/>
<g clip-path="url(#clip1)">
<path d="M18.749 9.356C18.4237 9.04922 18.078 8.7629 17.7323 8.47657C17.9865 8.26183 18.2407 8.05731 18.505 7.84256C18.6067 7.75053 18.5965 7.57669 18.505 7.48465C18.4033 7.38239 18.2508 7.39262 18.1492 7.48465C17.8746 7.70962 17.6001 7.9346 17.3256 8.15957C17.041 7.94482 16.736 7.7403 16.4411 7.53578C16.1565 7.36194 15.9023 7.80166 16.1768 7.98572C16.431 8.14934 16.675 8.32318 16.919 8.49702C16.5631 8.79358 16.1971 9.09013 15.8413 9.38668C15.7396 9.47871 15.7498 9.65255 15.8413 9.74459C15.943 9.84685 16.0955 9.83662 16.1971 9.74459C16.5733 9.43781 16.9495 9.12081 17.3256 8.81403C17.6916 9.10035 18.0475 9.40713 18.383 9.72414C18.627 9.93888 18.993 9.58097 18.749 9.356Z" fill="#8EBAC0"/>
</g>
<path d="M16.7558 6.98286C16.7711 7.43211 16.815 7.88142 16.859 8.33073C16.5289 8.30107 16.206 8.26419 15.8687 8.22727C15.7324 8.21974 15.6178 8.34993 15.6181 8.48035C15.6184 8.62526 15.7334 8.72693 15.8697 8.73445C16.2213 8.7714 16.573 8.80835 16.9246 8.84529C16.9755 9.20043 17.048 9.56285 17.1133 9.91801C17.1928 10.2442 17.6804 10.1148 17.6152 9.78862C17.5501 9.49142 17.4992 9.19425 17.4484 8.89708C17.9077 8.9415 18.3741 8.99317 18.8334 9.03758C18.9697 9.04511 19.0842 8.91492 19.084 8.7845C19.0837 8.63959 18.9687 8.53792 18.8324 8.5304C18.3516 8.47869 17.8636 8.43422 17.3828 8.38252C17.3245 7.91869 17.2877 7.44766 17.2724 6.98391C17.2502 6.65782 16.7408 6.64953 16.7558 6.98286Z" fill="#8EBAC0"/>
<path d="M11.7036 14.0424C11.5273 14.0572 11.395 14.0721 11.2775 14.0721C11.0277 14.0721 10.8807 13.983 10.8513 13.79C10.8219 13.597 10.9248 13.4485 11.1599 13.3743C11.3362 13.3149 11.5273 13.2852 11.7036 13.2555C12.306 13.1813 12.8938 13.1516 13.4815 13.3298C13.6872 13.3892 13.8783 13.4782 14.0546 13.597C14.4954 13.8939 14.5836 14.3839 14.3044 14.8441C14.1428 15.1113 13.893 15.3043 13.6285 15.4528C13.4521 15.5567 13.2758 15.6458 13.0701 15.7497C13.217 15.8833 14.5689 16.8929 14.6864 17.0413C14.804 17.1898 14.7893 17.3977 14.6717 17.5313C14.5542 17.6649 14.3925 17.6946 14.2162 17.6203C14.1134 17.561 14.0252 17.4867 13.9223 17.4125C13.5256 17.1007 12.835 16.596 12.4089 16.2545C12.3942 16.403 12.306 17.368 12.2913 17.7094C12.2913 17.7985 12.2913 17.9024 12.2619 17.9915C12.2179 18.1697 12.0562 18.2736 11.8946 18.2587C11.7183 18.2439 11.6007 18.1548 11.5566 17.9915C11.5273 17.8579 11.5272 17.7094 11.5272 17.5758C11.586 16.596 11.7036 14.2057 11.7036 14.0424ZM12.453 15.1559C12.8644 14.9926 13.2464 14.8441 13.5403 14.5472C13.6579 14.4284 13.6285 14.2354 13.4815 14.1612C13.1583 14.0127 12.8203 13.9979 12.4823 13.9682L12.453 15.1559Z" fill="black"/>
<path d="M4.18026 15.0817C4.66516 14.7402 5.07659 14.4433 5.48802 14.1612C5.59088 14.087 5.69373 14.0128 5.81128 13.9534C6.03169 13.8346 6.23741 13.8791 6.34026 14.0424C6.44312 14.2058 6.41373 14.3839 6.23741 14.5472C6.11986 14.6511 6.00231 14.7402 5.87006 14.8293C5.42924 15.1411 4.98843 15.4528 4.50353 15.7943C4.62108 15.8537 4.67986 15.9131 4.76802 15.9428C5.28231 16.1952 5.7819 16.4327 6.29618 16.6702C6.41373 16.7296 6.53128 16.789 6.61945 16.8781C6.75169 16.9969 6.76639 17.1453 6.69292 17.3086C6.61945 17.4571 6.47251 17.5313 6.31088 17.5016C6.19333 17.4868 6.09047 17.4274 5.98761 17.3829C5.50271 17.1453 5.01781 16.9078 4.51822 16.6851C4.43006 16.6405 4.3272 16.596 4.19496 16.5515C4.18026 16.6554 4.16557 16.7296 4.16557 16.8039C4.16557 17.1453 4.15088 17.3383 4.15088 17.6946C4.15088 17.7986 4.15088 17.9025 4.13618 18.0064C4.0921 18.2142 3.95986 18.333 3.78353 18.333C3.6072 18.333 3.46026 18.2142 3.41618 18.0064C3.40149 17.9025 3.40149 17.7986 3.40149 17.6946C3.41618 15.9576 3.44557 14.9778 3.46026 13.2407C3.46026 13.1071 3.47496 12.9735 3.48965 12.8547C3.51904 12.6914 3.63659 12.5875 3.81292 12.5727C3.97455 12.543 4.12149 12.6617 4.18026 12.8399C4.20965 12.9587 4.20965 13.1962 4.20965 13.1962C4.20965 13.8791 4.18027 13.9831 4.16557 14.666C4.16557 14.7699 4.16557 14.8887 4.18026 15.0817Z" fill="black"/>
<path d="M7.72154 15.4974C7.47175 15.3934 7.39828 15.1411 7.54522 14.9035C7.5893 14.8293 7.66277 14.7551 7.73624 14.6957C8.45624 13.9831 8.94113 13.5674 9.66113 12.8696C9.74929 12.7805 9.83746 12.7063 9.92562 12.6469C10.0873 12.543 10.2636 12.5578 10.3811 12.6766C10.4987 12.7954 10.5134 12.9735 10.4105 13.1368C10.337 13.2407 10.2489 13.3447 10.1607 13.4337C9.66113 13.9385 9.41134 14.1315 8.91175 14.6363C8.83828 14.7105 8.75011 14.7996 8.63256 14.9332C8.99991 15.0074 9.29379 15.0817 9.60236 15.1559C9.7493 15.1856 9.89623 15.2153 10.0432 15.2598C10.2048 15.3044 10.337 15.4083 10.3664 15.6013C10.3958 15.7794 10.3077 15.9279 10.1166 16.017C9.7493 16.1803 9.38195 16.3139 8.99991 16.4624C8.7795 16.5515 8.5444 16.6405 8.26522 16.7593C8.38277 16.8335 9.19093 17.2641 9.55828 17.4719C9.64644 17.5313 9.7493 17.5758 9.82277 17.6501C9.9697 17.7837 10.0138 17.9767 9.92562 18.1252C9.83746 18.2736 9.66113 18.3478 9.47011 18.2885C9.39664 18.2588 9.32317 18.2291 9.2497 18.1845C8.60317 17.8134 8.00073 17.5313 7.3542 17.1453C7.31012 17.1156 7.25134 17.0859 7.20726 17.0562C6.92808 16.8335 6.94277 16.5069 7.26603 16.3436C7.51583 16.21 8.88236 15.7498 8.88236 15.7498C8.88236 15.7498 7.83909 15.5568 7.72154 15.4974Z" fill="black"/>
<path d="M17.7133 15.7496C17.4194 15.72 17.2137 15.7051 16.9933 15.6903C16.67 15.6606 16.3468 15.6309 16.0235 15.6012C15.9353 15.5863 15.8472 15.5715 15.759 15.527C15.3476 15.3636 15.2153 14.9479 15.4945 14.5619C15.6268 14.3689 15.7884 14.2056 15.9647 14.0572C16.5672 13.5376 17.2578 13.2258 17.9631 12.9289C18.0219 12.8992 18.0953 12.8695 18.1688 12.8843C18.257 12.8992 18.3598 12.9437 18.3892 13.0179C18.4186 13.107 18.4186 13.2555 18.3745 13.3297C18.2864 13.4485 18.1688 13.5227 18.0513 13.5969C17.7133 13.7899 17.3606 13.9681 17.0374 14.1611C16.7435 14.3393 16.4643 14.5174 16.1998 14.8589C16.3909 14.8737 16.5378 14.9034 16.6847 14.9183C17.2137 14.9628 17.7427 14.9925 18.2717 15.037C18.3892 15.0519 18.5068 15.0667 18.6096 15.1113C18.9623 15.23 19.0504 15.5715 18.8006 15.8684C18.6684 16.0317 18.4921 16.1802 18.3157 16.299C17.9337 16.5662 17.5223 16.8186 17.1402 17.1007C16.8317 17.3233 16.5231 17.546 16.2145 17.7687C16.097 17.843 15.9794 17.932 15.8472 17.9766C15.6855 18.036 15.5533 17.9617 15.4651 17.8133C15.377 17.6648 15.3917 17.5164 15.4945 17.3827C15.568 17.2937 15.6709 17.2194 15.759 17.1452C16.3468 16.7295 16.9345 16.3287 17.5076 15.9278C17.5517 15.8981 17.5957 15.8536 17.7133 15.7496Z" fill="black"/>
</g>
<defs>
<clipPath id="clip0">
<rect width="22.4138" height="25" fill="white"/>
</clipPath>
<clipPath id="clip1">
<rect width="3.07037" height="2.4031" fill="white" transform="translate(15.7598 7.41309)"/>
</clipPath>
</defs>
</svg>
