<svg width="46" height="35" viewBox="0 0 46 35" fill="none" xmlns="http://www.w3.org/2000/svg">
<path d="M30.132 22L27.626 18.738L25.12 22H24.322L27.22 18.234L24.476 14.692H25.274L27.626 17.73L29.978 14.692H30.762L28.018 18.234L30.958 22H30.132ZM44.7446 19.942H43.1486V22H40.9366V19.942H35.6586V18.416L40.2786 12.2H42.6586L38.3746 18.094H41.0066V16.26H43.1486V18.094H44.7446V19.942Z" fill="#2A016C"/>
<g clip-path="url(#clip0)">
<circle cx="11" cy="5.5" r="5.5" fill="#2A016C"/>
<path d="M20.1666 20.1667C20.1666 22.9167 16.4999 22 10.9999 22C5.49985 22 1.83325 22.9167 1.83325 20.1667C1.83325 17.4167 5.49985 13.75 10.9999 13.75C16.4999 13.75 20.1666 17.4167 20.1666 20.1667Z" fill="#2A016C"/>
</g>
<defs>
<clipPath id="clip0">
<rect width="22" height="22" fill="white"/>
</clipPath>
</defs>
</svg>
